name analog
datacolumns 19
datarows 71
range 0.186 0.221
endheader
time	ground_force_vx	ground_force_vy	ground_force_vz	ground_force_px	ground_force_py	ground_force_pz	l_ground_force_vx	l_ground_force_vy	l_ground_force_vz	l_ground_force_px	l_ground_force_py	l_ground_force_pz	ground_torque_x	ground_torque_y	ground_torque_z	l_ground_torque_x	l_ground_torque_y	l_ground_torque_z
0.186	-0.0	-0.0	-0.0	4.178062438964844	5.956918716430664	-801.4239501953125	-0.0	-0.0	-0.0	-0.0	-0.0	-0.0	-0.0	-0.0	-0.0	-0.0	-0.0	-0.0
0.1865	-0.0	-0.0	-0.0	4.073947906494141	6.372825145721436	-803.1312255859375	-0.0	-0.0	-0.0	-0.0	-0.0	-0.0	-0.0	-0.0	-0.0	-0.0	-0.0	-0.0
0.187	-0.0	-0.0	-0.0	3.64272665977478	5.971736907958984	-804.013671875	-0.0	-0.0	-0.0	-0.0	-0.0	-0.0	-0.0	-0.0	-0.0	-0.0	-0.0	-0.0
0.1875	-0.0	-0.0	-0.0	2.736036777496338	5.4227800369262695	-803.7799072265625	-0.0	-0.0	-0.0	-0.0	-0.0	-0.0	-0.0	-0.0	-0.0	-0.0	-0.0	-0.0
0.188	-0.0	-0.0	-0.0	2.4086837768554688	5.065479755401611	-804.0152587890625	-0.0	-0.0	-0.0	-0.0	-0.0	-0.0	-0.0	-0.0	-0.0	-0.0	-0.0	-0.0
0.1885	-0.0	-0.0	-0.0	2.155246496200561	4.366581439971924	-805.306396484375	-0.0	-0.0	-0.0	-0.0	-0.0	-0.0	-0.0	-0.0	-0.0	-0.0	-0.0	-0.0
0.189	-0.0	-0.0	-0.0	1.5776238441467283	3.4910976886749268	-805.9603271484375	-0.0	-0.0	-0.0	-0.0	-0.0	-0.0	-0.0	-0.0	-0.0	-0.0	-0.0	-0.0
0.1895	-0.0	-0.0	-0.0	2.0530033111572266	2.585942029953003	-806.0712890625	-0.0	-0.0	-0.0	-0.0	-0.0	-0.0	-0.0	-0.0	-0.0	-0.0	-0.0	-0.0
0.19	-0.0	-0.0	-0.0	2.348289966583252	2.7027029991149902	-807.717041015625	-0.0	-0.0	-0.0	-0.0	-0.0	-0.0	-0.0	-0.0	-0.0	-0.0	-0.0	-0.0
0.1905	-0.0	-0.0	-0.0	2.646066427230835	2.004666566848755	-806.6030883789062	-0.0	-0.0	-0.0	-0.0	-0.0	-0.0	-0.0	-0.0	-0.0	-0.0	-0.0	-0.0
0.191	-0.0	-0.0	-0.0	3.34451675415039	0.6542073488235474	-807.5494384765625	-0.0	-0.0	-0.0	-0.0	-0.0	-0.0	-0.0	-0.0	-0.0	-0.0	-0.0	-0.0
0.1915	-0.0	-0.0	-0.0	4.088486194610596	-0.4152846932411194	-808.1279907226562	-0.0	-0.0	-0.0	-0.0	-0.0	-0.0	-0.0	-0.0	-0.0	-0.0	-0.0	-0.0
0.192	-0.0	-0.0	-0.0	4.266879558563232	-1.467443823814392	-807.1969604492188	-0.0	-0.0	-0.0	-0.0	-0.0	-0.0	-0.0	-0.0	-0.0	-0.0	-0.0	-0.0
0.1925	-0.0	-0.0	-0.0	5.054479598999023	-1.5914474725723269	-807.7225341796875	-0.0	-0.0	-0.0	-0.0	-0.0	-0.0	-0.0	-0.0	-0.0	-0.0	-0.0	-0.0
0.193	-0.0	-0.0	-0.0	5.768090724945068	-2.052564144134521	-807.2482299804688	-0.0	-0.0	-0.0	-0.0	-0.0	-0.0	-0.0	-0.0	-0.0	-0.0	-0.0	-0.0
0.1935	-0.0	-0.0	-0.0	5.7248053550720215	-2.6613762378692627	-806.90576171875	-0.0	-0.0	-0.0	-0.0	-0.0	-0.0	-0.0	-0.0	-0.0	-0.0	-0.0	-0.0
0.194	-0.0	-0.0	-0.0	5.666338920593262	-3.015088558197021	-804.5555419921875	-0.0	-0.0	-0.0	-0.0	-0.0	-0.0	-0.0	-0.0	-0.0	-0.0	-0.0	-0.0
0.1945	-0.0	-0.0	-0.0	5.454074859619141	-2.468046903610229	-801.3168334960938	-0.0	-0.0	-0.0	-0.0	-0.0	-0.0	-0.0	-0.0	-0.0	-0.0	-0.0	-0.0
0.195	-0.0	-0.0	-0.0	5.364682197570801	-2.4339795112609863	-797.907958984375	-0.0	-0.0	-0.0	-0.0	-0.0	-0.0	-0.0	-0.0	-0.0	-0.0	-0.0	-0.0
0.1955	-0.0	-0.0	-0.0	4.002551555633545	-1.8015854358673096	-796.0064086914062	-0.0	-0.0	-0.0	-0.0	-0.0	-0.0	-0.0	-0.0	-0.0	-0.0	-0.0	-0.0
0.196	-0.0	-0.0	-0.0	4.0572004318237305	-2.82121205329895	-793.1808471679688	-0.0	-0.0	-0.0	-0.0	-0.0	-0.0	-0.0	-0.0	-0.0	-0.0	-0.0	-0.0
0.1965	-0.0	-0.0	-0.0	4.130771160125732	-2.8095927238464355	-791.3690185546875	-0.0	-0.0	-0.0	-0.0	-0.0	-0.0	-0.0	-0.0	-0.0	-0.0	-0.0	-0.0
0.197	-0.0	-0.0	-0.0	2.649331569671631	-2.983805656433105	-791.123046875	-0.0	-0.0	-0.0	-0.0	-0.0	-0.0	-0.0	-0.0	-0.0	-0.0	-0.0	-0.0
0.1975	-0.0	-0.0	-0.0	1.226457118988037	-2.3061554431915283	-790.1869506835938	-0.0	-0.0	-0.0	-0.0	-0.0	-0.0	-0.0	-0.0	-0.0	-0.0	-0.0	-0.0
0.198	-0.0	-0.0	-0.0	0.3457791805267334	-2.3909053802490234	-790.416748046875	-0.0	-0.0	-0.0	-0.0	-0.0	-0.0	-0.0	-0.0	-0.0	-0.0	-0.0	-0.0
0.1985	-0.0	-0.0	-0.0	-0.9813156127929688	-3.8279101848602295	-789.4810791015625	-0.0	-0.0	-0.0	-0.0	-0.0	-0.0	-0.0	-0.0	-0.0	-0.0	-0.0	-0.0
0.199	-0.0	-0.0	-0.0	-2.5978732109069824	-5.536843776702881	-790.1876831054688	-0.0	-0.0	-0.0	-0.0	-0.0	-0.0	-0.0	-0.0	-0.0	-0.0	-0.0	-0.0
0.1995	-0.0	-0.0	-0.0	-3.940987348556519	-6.99416971206665	-792.7021484375	-0.0	-0.0	-0.0	-0.0	-0.0	-0.0	-0.0	-0.0	-0.0	-0.0	-0.0	-0.0
0.2	-0.0	-0.0	-0.0	-4.980035781860352	-9.044084548950195	-791.4348754882812	-0.0	-0.0	-0.0	-0.0	-0.0	-0.0	-0.0	-0.0	-0.0	-0.0	-0.0	-0.0
0.2005	-0.0	-0.0	-0.0	-6.42315673828125	-10.014151573181152	-791.6419677734375	-0.0	-0.0	-0.0	-0.0	-0.0	-0.0	-0.0	-0.0	-0.0	-0.0	-0.0	-0.0
0.201	-0.0	-0.0	-0.0	-7.487949371337891	-11.482011795043944	-795.2131958007812	-0.0	-0.0	-0.0	-0.0	-0.0	-0.0	-0.0	-0.0	-0.0	-0.0	-0.0	-0.0
0.2015	-0.0	-0.0	-0.0	-7.840616703033447	-12.688209533691406	-794.466552734375	-0.0	-0.0	-0.0	-0.0	-0.0	-0.0	-0.0	-0.0	-0.0	-0.0	-0.0	-0.0
0.202	-0.0	-0.0	-0.0	-8.264803886413574	-14.044754028320312	-795.5256958007812	-0.0	-0.0	-0.0	-0.0	-0.0	-0.0	-0.0	-0.0	-0.0	-0.0	-0.0	-0.0
0.2025	-0.0	-0.0	-0.0	-8.879610061645508	-14.407307624816896	-794.6549072265625	-0.0	-0.0	-0.0	-0.0	-0.0	-0.0	-0.0	-0.0	-0.0	-0.0	-0.0	-0.0
0.203	-0.0	-0.0	-0.0	-8.847800254821777	-14.690570831298828	-792.9520874023438	-0.0	-0.0	-0.0	-0.0	-0.0	-0.0	-0.0	-0.0	-0.0	-0.0	-0.0	-0.0
0.20350000000000001	-0.0	-0.0	-0.0	-8.628137588500977	-14.932680130004885	-789.5469970703125	-0.0	-0.0	-0.0	-0.0	-0.0	-0.0	-0.0	-0.0	-0.0	-0.0	-0.0	-0.0
0.20400000000000001	-0.0	-0.0	-0.0	-7.946635723114014	-15.063037872314451	-787.7815551757812	-0.0	-0.0	-0.0	-0.0	-0.0	-0.0	-0.0	-0.0	-0.0	-0.0	-0.0	-0.0
0.20450000000000002	-0.0	-0.0	-0.0	-7.77025032043457	-16.237773895263672	-788.975830078125	-0.0	-0.0	-0.0	-0.0	-0.0	-0.0	-0.0	-0.0	-0.0	-0.0	-0.0	-0.0
0.20500000000000002	-0.0	-0.0	-0.0	-7.509764194488525	-17.00783920288086	-788.5870971679688	-0.0	-0.0	-0.0	-0.0	-0.0	-0.0	-0.0	-0.0	-0.0	-0.0	-0.0	-0.0
0.20550000000000002	-0.0	-0.0	-0.0	-6.4715094566345215	-18.4425048828125	-789.263671875	-0.0	-0.0	-0.0	-0.0	-0.0	-0.0	-0.0	-0.0	-0.0	-0.0	-0.0	-0.0
0.20600000000000002	-0.0	-0.0	-0.0	-6.155525207519531	-20.5168571472168	-787.2046508789062	-0.0	-0.0	-0.0	-0.0	-0.0	-0.0	-0.0	-0.0	-0.0	-0.0	-0.0	-0.0
0.20650000000000002	-0.0	-0.0	-0.0	-5.5231804847717285	-22.704221725463867	-789.5164794921875	-0.0	-0.0	-0.0	-0.0	-0.0	-0.0	-0.0	-0.0	-0.0	-0.0	-0.0	-0.0
0.20700000000000002	-0.0	-0.0	-0.0	-4.703813552856445	-24.745847702026367	-793.9164428710938	-0.0	-0.0	-0.0	-0.0	-0.0	-0.0	-0.0	-0.0	-0.0	-0.0	-0.0	-0.0
0.20750000000000002	-0.0	-0.0	-0.0	-4.9549736976623535	-26.892841339111328	-795.5228271484375	-0.0	-0.0	-0.0	-0.0	-0.0	-0.0	-0.0	-0.0	-0.0	-0.0	-0.0	-0.0
0.20800000000000002	-0.0	-0.0	-0.0	-4.607057094573975	-26.917381286621094	-798.475341796875	-0.0	-0.0	-0.0	-0.0	-0.0	-0.0	-0.0	-0.0	-0.0	-0.0	-0.0	-0.0
0.2085	-0.0	-0.0	-0.0	-5.360261917114258	-27.37065696716309	-799.147216796875	-0.0	-0.0	-0.0	-0.0	-0.0	-0.0	-0.0	-0.0	-0.0	-0.0	-0.0	-0.0
0.209	-0.0	-0.0	-0.0	-6.479662418365479	-27.743335723876957	-799.4699096679688	-0.0	-0.0	-0.0	-0.0	-0.0	-0.0	-0.0	-0.0	-0.0	-0.0	-0.0	-0.0
0.2095	-0.0	-0.0	-0.0	-8.174589157104492	-28.343467712402344	-802.741943359375	-0.0	-0.0	-0.0	-0.0	-0.0	-0.0	-0.0	-0.0	-0.0	-0.0	-0.0	-0.0
0.21	-0.0	-0.0	-0.0	-9.578354835510254	-28.934579849243164	-804.7953491210938	-0.0	-0.0	-0.0	-0.0	-0.0	-0.0	-0.0	-0.0	-0.0	-0.0	-0.0	-0.0
0.2105	-0.0	-0.0	-0.0	-11.0855073928833	-29.08243751525879	-806.1144409179688	-0.0	-0.0	-0.0	-0.0	-0.0	-0.0	-0.0	-0.0	-0.0	-0.0	-0.0	-0.0
0.211	-0.0	-0.0	-0.0	-11.848509788513184	-28.594385147094727	-808.167724609375	-0.0	-0.0	-0.0	-0.0	-0.0	-0.0	-0.0	-0.0	-0.0	-0.0	-0.0	-0.0
0.2115	-0.0	-0.0	-0.0	-13.08755588531494	-26.92061424255371	-809.7499389648438	-0.0	-0.0	-0.0	-0.0	-0.0	-0.0	-0.0	-0.0	-0.0	-0.0	-0.0	-0.0
0.212	-0.0	-0.0	-0.0	-14.352798461914062	-25.67963981628418	-812.3538208007812	-0.0	-0.0	-0.0	-0.0	-0.0	-0.0	-0.0	-0.0	-0.0	-0.0	-0.0	-0.0
0.2125	-0.0	-0.0	-0.0	-15.215548515319824	-23.24422645568848	-815.55810546875	-0.0	-0.0	-0.0	-0.0	-0.0	-0.0	-0.0	-0.0	-0.0	-0.0	-0.0	-0.0
0.213	-0.0	-0.0	-0.0	-15.790260314941406	-20.99542808532715	-816.1087036132812	-0.0	-0.0	-0.0	-0.0	-0.0	-0.0	-0.0	-0.0	-0.0	-0.0	-0.0	-0.0
0.2135	-0.0	-0.0	-0.0	-15.790260314941406	-18.48325538635254	-820.1970825195312	-0.0	-0.0	-0.0	-0.0	-0.0	-0.0	-0.0	-0.0	-0.0	-0.0	-0.0	-0.0
0.214	-0.0	-0.0	-0.0	-16.152191162109375	-16.315946578979492	-821.01123046875	-0.0	-0.0	-0.0	-0.0	-0.0	-0.0	-0.0	-0.0	-0.0	-0.0	-0.0	-0.0
0.2145	-0.0	-0.0	-0.0	-16.688030242919922	-13.893021583557127	-822.9754638671875	-0.0	-0.0	-0.0	-0.0	-0.0	-0.0	-0.0	-0.0	-0.0	-0.0	-0.0	-0.0
0.215	-0.0	-0.0	-0.0	-15.963197708129885	-12.344708442687988	-824.9620361328125	-0.0	-0.0	-0.0	-0.0	-0.0	-0.0	-0.0	-0.0	-0.0	-0.0	-0.0	-0.0
0.2155	-0.0	-0.0	-0.0	-15.7178316116333	-10.300296783447266	-825.2276611328125	-0.0	-0.0	-0.0	-0.0	-0.0	-0.0	-0.0	-0.0	-0.0	-0.0	-0.0	-0.0
0.216	-0.0	-0.0	-0.0	-15.510978698730469	-8.69603443145752	-826.6610717773438	-0.0	-0.0	-0.0	-0.0	-0.0	-0.0	-0.0	-0.0	-0.0	-0.0	-0.0	-0.0
0.2165	-0.0	-0.0	-0.0	-14.507623672485352	-7.821662902832031	-825.3814697265625	-0.0	-0.0	-0.0	-0.0	-0.0	-0.0	-0.0	-0.0	-0.0	-0.0	-0.0	-0.0
0.217	-0.0	-0.0	-0.0	-14.083184242248535	-7.313493728637695	-827.5006103515625	-0.0	-0.0	-0.0	-0.0	-0.0	-0.0	-0.0	-0.0	-0.0	-0.0	-0.0	-0.0
0.2175	-0.0	-0.0	-0.0	-12.897066116333008	-6.867659568786621	-828.6271362304688	-0.0	-0.0	-0.0	-0.0	-0.0	-0.0	-0.0	-0.0	-0.0	-0.0	-0.0	-0.0
0.218	-0.0	-0.0	-0.0	-12.744650840759276	-6.846112251281738	-830.67919921875	-0.0	-0.0	-0.0	-0.0	-0.0	-0.0	-0.0	-0.0	-0.0	-0.0	-0.0	-0.0
0.2185	-0.0	-0.0	-0.0	-11.113043785095217	-6.366494178771973	-829.9056396484375	-0.0	-0.0	-0.0	-0.0	-0.0	-0.0	-0.0	-0.0	-0.0	-0.0	-0.0	-0.0
0.219	-0.0	-0.0	-0.0	-9.303671836853027	-6.111871242523193	-829.8890991210938	-0.0	-0.0	-0.0	-0.0	-0.0	-0.0	-0.0	-0.0	-0.0	-0.0	-0.0	-0.0
0.2195	-0.0	-0.0	-0.0	-8.135199546813965	-6.294203281402588	-830.2586059570312	-0.0	-0.0	-0.0	-0.0	-0.0	-0.0	-0.0	-0.0	-0.0	-0.0	-0.0	-0.0
0.22	-0.0	-0.0	-0.0	-7.115947723388672	-5.4881463050842285	-829.2514038085938	-0.0	-0.0	-0.0	-0.0	-0.0	-0.0	-0.0	-0.0	-0.0	-0.0	-0.0	-0.0
0.2205	-0.0	-0.0	-0.0	-6.58446216583252	-5.008402824401856	-828.9667358398438	-0.0	-0.0	-0.0	-0.0	-0.0	-0.0	-0.0	-0.0	-0.0	-0.0	-0.0	-0.0
0.221	-0.0	-0.0	-0.0	-6.224079132080078	-4.240498065948486	-827.7041625976562	-0.0	-0.0	-0.0	-0.0	-0.0	-0.0	-0.0	-0.0	-0.0	-0.0	-0.0	-0.0
